<svg xmlns="http://www.w3.org/2000/svg" viewBox="0 0 115.4 126" role="img" aria-labelledby="title desc">
  <title id="title">Rounded robot icon</title>
  <desc id="desc">A simple rounded robot head with a dark visor, cyan eyes, a left side module, and a tall right side module.</desc>
  <defs>
    <linearGradient id="shell" x1="17" y1="19" x2="98" y2="116" gradientUnits="userSpaceOnUse">
      <stop offset="0" stop-color="#FFFFFF"/>
      <stop offset="1" stop-color="#E8ECF4"/>
    </linearGradient>
    <linearGradient id="side" x1="2" y1="49" x2="16" y2="82" gradientUnits="userSpaceOnUse">
      <stop offset="0" stop-color="#F3F6FA"/>
      <stop offset="1" stop-color="#D6DCE6"/>
    </linearGradient>
    <linearGradient id="visor" x1="21" y1="45" x2="91" y2="86" gradientUnits="userSpaceOnUse">
      <stop offset="0" stop-color="#24315A"/>
      <stop offset="1" stop-color="#142044"/>
    </linearGradient>
    <linearGradient id="eye" x1="34" y1="56" x2="80" y2="75" gradientUnits="userSpaceOnUse">
      <stop offset="0" stop-color="#8CF7FF"/>
      <stop offset="1" stop-color="#66E4F6"/>
    </linearGradient>
  </defs>

  <path fill="url(#side)" d="M9.6 47.2h1.1v33.9H9.5c-5 0-8.4-4-8.4-9.4V57.1c0-5.7 3.5-9.9 8.5-9.9Z"/>

  <path fill="url(#shell)" d="M91.7 25.6v75.7c-5.4 6.8-15 10.4-28 10.4h-9.9C26.7 111.7 9.5 97 9.5 73.5v-9.8c0-29.2 17.4-48.6 43.5-48.6h7.2c13.5 0 23.9 3.5 31.5 10.5Z"/>

  <path fill="url(#visor)" d="M42.3 43h31.3c8.7 0 14.3 3.7 18.1 8.8V78c-3.2 5.5-9.1 9.6-18.1 9.6H39.8c-14 0-21.3-10.7-21.3-22.2C18.5 52.9 27.7 43 42.3 43Z"/>

  <rect x="33.9" y="56.2" width="10" height="18.6" rx="5" fill="url(#eye)"/>
  <rect x="70.1" y="56.2" width="10" height="18.6" rx="5" fill="url(#eye)"/>

  <path fill="url(#shell)" d="M98.3 2.4h3.2c8.5 0 12.7 8 12.7 13.2v95.6c0 7.8-6 12.3-12.7 12.3h-3.6c-2.2 0-3.5-1.4-3.5-3.6V5.9c0-2.1 1.5-3.5 3.9-3.5Z"/>
</svg>
